<?xml version="1.0" encoding="UTF-8" standalone="no"?>
<svg
   xmlns:dc="http://purl.org/dc/elements/1.1/"
   xmlns:cc="http://creativecommons.org/ns#"
   xmlns:rdf="http://www.w3.org/1999/02/22-rdf-syntax-ns#"
   xmlns:svg="http://www.w3.org/2000/svg"
   xmlns="http://www.w3.org/2000/svg"
   xmlns:sodipodi="http://sodipodi.sourceforge.net/DTD/sodipodi-0.dtd"
   xmlns:inkscape="http://www.inkscape.org/namespaces/inkscape"
   height="522"
   version="1.1"
   viewBox="0 0 522 522"
   width="522"
   id="svg3059"
   inkscape:version="0.48.4 r9939"
   sodipodi:docname="compass.svg">
  <metadata
     id="metadata3070">
    <rdf:RDF>
      <cc:Work
         rdf:about="">
        <dc:format>image/svg+xml</dc:format>
        <dc:type
           rdf:resource="http://purl.org/dc/dcmitype/StillImage" />
      </cc:Work>
    </rdf:RDF>
  </metadata>
  <sodipodi:namedview
     pagecolor="#ffffff"
     bordercolor="#666666"
     borderopacity="1"
     objecttolerance="10"
     gridtolerance="10"
     guidetolerance="10"
     inkscape:pageopacity="0"
     inkscape:pageshadow="2"
     inkscape:window-width="1366"
     inkscape:window-height="718"
     id="namedview3068"
     showgrid="false"
     inkscape:zoom="0.73"
     inkscape:cx="379.79617"
     inkscape:cy="267.56851"
     inkscape:window-x="0"
     inkscape:window-y="0"
     inkscape:window-maximized="1"
     inkscape:current-layer="svg3059"
     fit-margin-top="5"
     fit-margin-left="5"
     fit-margin-right="5"
     fit-margin-bottom="5" />
  <title
     id="title3061" />
  <defs
     id="defs3063" />
  <g
     id="Icons new Arranged Names"
     transform="matrix(12.929952,-12.929952,12.929952,12.929952,-152.75847,260.99999)"
     style="fill:#808080;stroke:none">
    <g
       id="90 Compass"
       style="fill:#808080">
      <path
         d="M 16,28 C 22.627417,28 28,22.627417 28,16 28,9.3725827 22.627417,4 16,4 9.3725827,4 4,9.3725827 4,16 4,22.627417 9.3725827,28 16,28 z m 0,2 C 8.2680131,30 2,23.731987 2,16 2,8.2680131 8.2680131,2 16,2 23.731987,2 30,8.2680131 30,16 30,23.731987 23.731987,30 16,30 z M 8.2218254,23.778175 c 0,0 3.1819806,-8.838835 4.9497476,-10.606602 1.767767,-1.767767 10.606602,-4.9497476 10.606602,-4.9497476 0,0 -3.181981,8.8388346 -4.949748,10.6066016 -1.767767,1.767767 -10.6066016,4.949748 -10.6066016,4.949748 z m 9.1923886,-6.363961 -2.828428,-2.828428 c -0.707106,-0.707106 -3.535534,6.363961 -3.535534,6.363961 0,0 7.071068,-2.828427 6.363962,-3.535533 z m 0,0"
         id="Oval 278"
         inkscape:connector-curvature="0"
         style="fill:#808080" />
    </g>
  </g>
</svg>
